<mxfile host="app.diagrams.net" agent="Mozilla/5.0 (Windows NT 10.0; Win64; x64) AppleWebKit/537.36 (KHTML, like Gecko) Chrome/122.0.0.0 Safari/537.36" version="24.7.6">
  <diagram name="第 1 页" id="NB6RKZVzmfwphrMn_hrm">
    <mxGraphModel dx="1298" dy="804" grid="1" gridSize="10" guides="1" tooltips="1" connect="1" arrows="1" fold="1" page="1" pageScale="1" pageWidth="827" pageHeight="1169" math="0" shadow="0">
      <root>
        <mxCell id="0" />
        <mxCell id="1" parent="0" />
        <mxCell id="yUNBQ5WcYvo2Tnx_hsAu-10" value="" style="edgeStyle=orthogonalEdgeStyle;rounded=0;orthogonalLoop=1;jettySize=auto;html=1;" edge="1" parent="1" source="yUNBQ5WcYvo2Tnx_hsAu-8" target="yUNBQ5WcYvo2Tnx_hsAu-9">
          <mxGeometry relative="1" as="geometry" />
        </mxCell>
        <mxCell id="yUNBQ5WcYvo2Tnx_hsAu-8" value="开始" style="ellipse;whiteSpace=wrap;html=1;" vertex="1" parent="1">
          <mxGeometry x="300" y="30" width="120" height="80" as="geometry" />
        </mxCell>
        <mxCell id="yUNBQ5WcYvo2Tnx_hsAu-12" value="" style="edgeStyle=orthogonalEdgeStyle;rounded=0;orthogonalLoop=1;jettySize=auto;html=1;" edge="1" parent="1" source="yUNBQ5WcYvo2Tnx_hsAu-9" target="yUNBQ5WcYvo2Tnx_hsAu-11">
          <mxGeometry relative="1" as="geometry" />
        </mxCell>
        <mxCell id="yUNBQ5WcYvo2Tnx_hsAu-9" value="加载url" style="whiteSpace=wrap;html=1;" vertex="1" parent="1">
          <mxGeometry x="300" y="140" width="120" height="60" as="geometry" />
        </mxCell>
        <mxCell id="yUNBQ5WcYvo2Tnx_hsAu-14" value="" style="edgeStyle=orthogonalEdgeStyle;rounded=0;orthogonalLoop=1;jettySize=auto;html=1;" edge="1" parent="1" source="yUNBQ5WcYvo2Tnx_hsAu-11" target="yUNBQ5WcYvo2Tnx_hsAu-13">
          <mxGeometry relative="1" as="geometry" />
        </mxCell>
        <mxCell id="yUNBQ5WcYvo2Tnx_hsAu-11" value="下载url所指向的图片资源" style="whiteSpace=wrap;html=1;" vertex="1" parent="1">
          <mxGeometry x="300" y="240" width="120" height="60" as="geometry" />
        </mxCell>
        <mxCell id="yUNBQ5WcYvo2Tnx_hsAu-16" value="" style="edgeStyle=orthogonalEdgeStyle;rounded=0;orthogonalLoop=1;jettySize=auto;html=1;" edge="1" parent="1" source="yUNBQ5WcYvo2Tnx_hsAu-13" target="yUNBQ5WcYvo2Tnx_hsAu-15">
          <mxGeometry relative="1" as="geometry" />
        </mxCell>
        <mxCell id="yUNBQ5WcYvo2Tnx_hsAu-13" value="下载完成，尝试解析图片" style="whiteSpace=wrap;html=1;" vertex="1" parent="1">
          <mxGeometry x="300" y="340" width="120" height="60" as="geometry" />
        </mxCell>
        <mxCell id="yUNBQ5WcYvo2Tnx_hsAu-18" value="" style="edgeStyle=orthogonalEdgeStyle;rounded=0;orthogonalLoop=1;jettySize=auto;html=1;" edge="1" parent="1" source="yUNBQ5WcYvo2Tnx_hsAu-15" target="yUNBQ5WcYvo2Tnx_hsAu-17">
          <mxGeometry relative="1" as="geometry" />
        </mxCell>
        <mxCell id="yUNBQ5WcYvo2Tnx_hsAu-20" value="" style="edgeStyle=orthogonalEdgeStyle;rounded=0;orthogonalLoop=1;jettySize=auto;html=1;" edge="1" parent="1" source="yUNBQ5WcYvo2Tnx_hsAu-15" target="yUNBQ5WcYvo2Tnx_hsAu-19">
          <mxGeometry relative="1" as="geometry" />
        </mxCell>
        <mxCell id="yUNBQ5WcYvo2Tnx_hsAu-15" value="解析图片的宽高比小于标定横纵比" style="rhombus;whiteSpace=wrap;html=1;" vertex="1" parent="1">
          <mxGeometry x="300" y="440" width="120" height="80" as="geometry" />
        </mxCell>
        <mxCell id="yUNBQ5WcYvo2Tnx_hsAu-22" value="" style="edgeStyle=orthogonalEdgeStyle;rounded=0;orthogonalLoop=1;jettySize=auto;html=1;" edge="1" parent="1" source="yUNBQ5WcYvo2Tnx_hsAu-17" target="yUNBQ5WcYvo2Tnx_hsAu-21">
          <mxGeometry relative="1" as="geometry" />
        </mxCell>
        <mxCell id="yUNBQ5WcYvo2Tnx_hsAu-17" value="原流程" style="whiteSpace=wrap;html=1;" vertex="1" parent="1">
          <mxGeometry x="300" y="560" width="120" height="60" as="geometry" />
        </mxCell>
        <mxCell id="yUNBQ5WcYvo2Tnx_hsAu-19" value="修改图片缩放方式，让图片完全展示" style="whiteSpace=wrap;html=1;" vertex="1" parent="1">
          <mxGeometry x="500" y="450" width="120" height="60" as="geometry" />
        </mxCell>
        <mxCell id="yUNBQ5WcYvo2Tnx_hsAu-21" value="展示图片" style="whiteSpace=wrap;html=1;" vertex="1" parent="1">
          <mxGeometry x="300" y="660" width="120" height="60" as="geometry" />
        </mxCell>
        <mxCell id="yUNBQ5WcYvo2Tnx_hsAu-23" value="结束" style="ellipse;whiteSpace=wrap;html=1;" vertex="1" parent="1">
          <mxGeometry x="300" y="760" width="120" height="80" as="geometry" />
        </mxCell>
        <mxCell id="yUNBQ5WcYvo2Tnx_hsAu-24" value="" style="endArrow=classic;html=1;rounded=0;exitX=0.5;exitY=1;exitDx=0;exitDy=0;entryX=0.5;entryY=0;entryDx=0;entryDy=0;" edge="1" parent="1" source="yUNBQ5WcYvo2Tnx_hsAu-21" target="yUNBQ5WcYvo2Tnx_hsAu-23">
          <mxGeometry width="50" height="50" relative="1" as="geometry">
            <mxPoint x="220" y="650" as="sourcePoint" />
            <mxPoint x="270" y="600" as="targetPoint" />
          </mxGeometry>
        </mxCell>
        <mxCell id="yUNBQ5WcYvo2Tnx_hsAu-25" value="" style="endArrow=classic;html=1;rounded=0;exitX=0.5;exitY=1;exitDx=0;exitDy=0;entryX=1;entryY=0.5;entryDx=0;entryDy=0;" edge="1" parent="1" source="yUNBQ5WcYvo2Tnx_hsAu-19" target="yUNBQ5WcYvo2Tnx_hsAu-21">
          <mxGeometry width="50" height="50" relative="1" as="geometry">
            <mxPoint x="620" y="620" as="sourcePoint" />
            <mxPoint x="670" y="570" as="targetPoint" />
            <Array as="points">
              <mxPoint x="560" y="690" />
            </Array>
          </mxGeometry>
        </mxCell>
      </root>
    </mxGraphModel>
  </diagram>
</mxfile>
